<?xml version="1.0" standalone="no"?>
<!DOCTYPE svg PUBLIC "-//W3C//DTD SVG 20010904//EN"
 "http://www.w3.org/TR/2001/REC-SVG-20010904/DTD/svg10.dtd">
<svg version="1.0" xmlns="http://www.w3.org/2000/svg"
 width="240.000000pt" height="240.000000pt" viewBox="0 0 240.000000 240.000000"
 preserveAspectRatio="xMidYMid meet">

<g transform="translate(0.000000,240.000000) scale(0.100000,-0.100000)"
fill="#000000" stroke="none">
<path d="M1130 1065 l0 -215 40 0 c31 0 40 4 40 17 0 14 2 14 21 -3 16 -14 36
-19 79 -19 53 0 62 3 94 34 44 42 60 90 52 148 -14 107 -123 166 -216 118
l-30 -16 0 76 0 75 -40 0 -40 0 0 -215z m225 0 c54 -53 17 -146 -59 -148 -30
-1 -44 5 -62 27 -51 59 -15 146 61 146 25 0 44 -8 60 -25z"/>
<path d="M312 1140 c-46 -28 -76 -98 -67 -156 15 -106 144 -172 219 -113 l26
20 0 -34 c0 -36 -21 -62 -55 -69 -14 -2 -21 -12 -23 -36 -3 -29 -1 -32 23 -32
41 0 95 30 116 64 17 27 19 52 19 204 l0 173 -37 -3 c-24 -2 -37 -8 -35 -15 3
-17 -8 -16 -32 2 -29 22 -114 19 -154 -5z m155 -72 c28 -26 31 -86 6 -117 -10
-12 -35 -24 -55 -28 -32 -5 -41 -1 -68 25 -38 39 -40 83 -5 117 32 33 89 34
122 3z"/>
<path d="M617 1153 c-4 -3 -7 -73 -7 -155 l0 -148 39 0 39 0 4 89 c3 99 17
125 69 136 26 6 29 11 29 46 0 29 -4 39 -16 39 -20 0 -56 -19 -71 -39 -11 -14
-12 -12 -13 12 0 24 -4 27 -33 27 -19 0 -37 -3 -40 -7z"/>
<path d="M849 1137 c-43 -28 -69 -80 -69 -135 0 -96 63 -157 161 -157 65 0 98
18 137 75 44 65 21 172 -47 217 -47 32 -135 32 -182 0z m146 -72 c33 -32 34
-89 3 -122 -29 -31 -87 -31 -115 0 -51 55 -16 147 57 147 19 0 40 -9 55 -25z"/>
<path d="M1543 1140 c-47 -28 -76 -92 -70 -153 5 -54 27 -91 78 -125 27 -19
43 -23 82 -19 26 2 56 12 67 22 18 16 20 16 20 2 0 -13 9 -17 40 -17 l40 0 0
155 0 155 -40 0 c-30 0 -40 -4 -40 -16 0 -15 -2 -15 -25 0 -34 22 -112 21
-152 -4z m152 -75 c33 -32 33 -84 1 -121 -50 -59 -146 -19 -146 60 0 75 93
114 145 61z"/>
<path d="M1887 1130 c-45 -39 -61 -79 -55 -139 6 -59 35 -103 84 -126 44 -21
115 -16 144 10 19 18 20 17 20 -13 0 -36 -30 -72 -60 -72 -16 0 -20 -7 -20
-35 0 -32 3 -35 29 -35 38 0 92 38 113 80 15 29 18 63 18 198 l0 162 -40 0
c-29 0 -40 -4 -40 -15 0 -14 -3 -14 -30 0 -16 8 -52 15 -79 15 -42 0 -56 -5
-84 -30z m168 -65 c37 -36 34 -86 -7 -120 -60 -51 -138 -14 -138 65 0 73 93
108 145 55z"/>
</g>
</svg>
